#tb 0: 1/25
0,          0,          0,        1,    38016, 0xb9ac19bd
0,          1,          1,        1,    38016, 0x3898fc35
0,          2,          2,        1,    38016, 0xf6f4ed19
0,          3,          3,        1,    38016, 0xc31af64b
0,          4,          4,        1,    38016, 0x42161687
0,          5,          5,        1,    38016, 0xe88133a3
0,          6,          6,        1,    38016, 0xebb5415a
0,          7,          7,        1,    38016, 0x643c62ac
0,          8,          8,        1,    38016, 0x7ad68041
0,          9,          9,        1,    38016, 0x2625981b
0,         10,         10,        1,    38016, 0x1a839bbf
0,         11,         11,        1,    38016, 0xe41db3a9
0,         12,         12,        1,    38016, 0x894eb2dd
0,         13,         13,        1,    38016, 0x4633a2a2
0,         14,         14,        1,    38016, 0xeb848787
0,         15,         15,        1,    38016, 0x23c590b0
0,         16,         16,        1,    38016, 0xc7cbaf63
